<svg width="156" height="156" viewBox="0 0 156 156" fill="none" xmlns="http://www.w3.org/2000/svg">
<circle cx="78" cy="78" r="76" fill="white" stroke="#99D6FF" stroke-width="4"/>
<path d="M84.5 32.5C66.5 31.5 66.5 58.5 66.5 58.5H81H96.5H111C110.827 48.6424 110.438 45.0263 105 45C105 45 102.5 33.5 84.5 32.5Z" fill="#99D6FF" stroke="#99D6FF"/>
<path d="M80.5 94.5L76 96L79.5 107.5L84 105.5L85 111L82 127.5L94.5 126.5L91 111L92.5 106L97 107.5L100.5 95L97 93.5L88.5 100.5L80.5 94.5Z" fill="#99D6FF"/>
<path d="M31 85V66H36.5V84L33.5 89.5L31 85Z" fill="#99D6FF" stroke="black"/>
<path d="M117.425 96.6769L97.8387 92.3263V89.211C100.817 87.263 103.15 84.419 104.466 81.063H108.79C112.242 81.063 115.048 78.2564 115.048 74.805V63.8534C115.048 61.5471 113.781 59.5509 111.919 58.4654V51.6237C111.919 48.2158 109.883 45.1792 106.788 43.8668L106.415 43.1205C102.687 35.6638 95.1917 31.0314 86.8542 31.0314C74.7949 31.0329 64.9838 40.844 64.9838 52.9033V58.4669C63.1222 59.5525 61.8548 61.5486 61.8548 63.8549V74.8065C61.8548 78.2579 64.6615 81.0646 68.1129 81.0646H72.4374C73.7529 84.4205 76.0859 87.2646 79.0645 89.2126V92.3279L59.4782 96.6784C54.4295 97.7998 50.9032 102.198 50.9032 107.369V128H126V107.369C126 102.198 122.474 97.7998 117.425 96.6769ZM99.1839 95.8305L96.8593 105.128L90.9061 101.161L96.773 95.2942L99.1839 95.8305ZM86.6052 112.355H90.2995L92.8021 124.871H84.1026L86.6052 112.355ZM90.3591 109.226H86.5441L85.5418 105.222L88.4516 103.284L91.3598 105.224L90.3591 109.226ZM111.919 74.8065C111.919 76.5322 110.516 77.9355 108.79 77.9355H105.363C105.55 76.9188 105.661 75.8768 105.661 74.8065V60.7259H108.79C110.516 60.7259 111.919 62.1292 111.919 63.8549V74.8065ZM68.1129 52.9033C68.1129 42.5697 76.5206 34.1619 86.8542 34.1619C93.9977 34.1619 100.422 38.1313 103.616 44.5223L104.554 46.3931L105.169 46.5986C107.333 47.3213 108.79 49.3411 108.79 51.6268V57.5968H105.661V52.9033H102.532V56.5953C101.366 57.1919 100.093 57.5265 98.7806 57.5747C99.5017 56.9177 100.151 56.1698 100.705 55.3364L98.1015 53.6007C96.4934 56.0132 93.838 57.4746 90.955 57.5777C91.6776 56.9192 92.327 56.1698 92.8823 55.3364L90.2789 53.6007C88.6708 56.0132 86.0154 57.4746 83.1324 57.5777C83.8551 56.9192 84.5044 56.1698 85.0598 55.3364L82.4563 53.6007C80.7887 56.1026 77.9958 57.5968 74.989 57.5968H74.3709V52.9033H71.2419V57.5968H68.1129V52.9033ZM68.1129 77.9355C66.3872 77.9355 64.9838 76.5322 64.9838 74.8065V63.8549C64.9838 62.1292 66.3872 60.7259 68.1129 60.7259H71.2419V74.8065C71.2419 75.8768 71.3527 76.9188 71.5406 77.9355H68.1129ZM74.3709 74.8065V60.7259H74.989C76.9897 60.7259 78.917 60.2316 80.629 59.3302V60.7259H82.8115C84.8123 60.7259 86.7396 60.2316 88.4516 59.3302V60.7259H90.6341C92.6348 60.7259 94.5622 60.2316 96.2742 59.3302V60.7259H98.4567C99.8585 60.7259 101.229 60.4554 102.532 59.9871V74.8065C102.532 75.8829 102.399 76.9279 102.169 77.9355H94.4201C93.7723 76.1189 92.0512 74.8065 90.0146 74.8065H86.8855C84.2981 74.8065 82.192 76.9126 82.192 79.5C82.192 82.0875 84.2981 84.1936 86.8855 84.1936H90.0146C92.0512 84.1936 93.7723 82.8812 94.4201 81.0646H101.046C98.7371 85.6924 93.9648 88.8871 88.4516 88.8871C80.6871 88.8871 74.3709 82.571 74.3709 74.8065ZM91.5806 79.5C91.5806 80.3618 90.8793 81.0646 90.0161 81.0646H86.8871C86.0238 81.0646 85.3226 80.3618 85.3226 79.5C85.3226 78.6383 86.0238 77.9355 86.8871 77.9355H90.0161C90.8793 77.9355 91.5806 78.6383 91.5806 79.5ZM88.4516 92.0162C90.6609 92.0162 92.7662 91.583 94.7096 90.8206V92.9329L88.4516 99.1909L82.1935 92.9329V90.8206C84.1369 91.583 86.2423 92.0162 88.4516 92.0162ZM80.1302 95.2942L85.9971 101.161L80.0438 105.128L77.7192 95.8305L80.1302 95.2942ZM54.0322 107.369C54.0322 103.675 56.5509 100.533 60.1574 99.7326L74.6651 96.508L78.0851 110.195L82.7787 107.065L83.7191 110.829L80.9109 124.871H66.5484V107.661H63.4193V124.871H54.0322V107.369ZM122.871 124.871H113.484V107.661H110.355V124.871H95.9923L93.1841 110.829L94.1245 107.065L98.818 110.195L102.238 96.508L116.746 99.7326C120.352 100.533 122.871 103.675 122.871 107.369V124.871Z" fill="#265785"/>
<path d="M99.4032 65.4193C99.4032 66.2833 98.7027 66.9838 97.8387 66.9838C96.9747 66.9838 96.2742 66.2833 96.2742 65.4193C96.2742 64.5553 96.9747 63.8547 97.8387 63.8547C98.7027 63.8547 99.4032 64.5553 99.4032 65.4193Z" fill="#265785"/>
<path d="M80.629 65.4193C80.629 66.2833 79.9285 66.9838 79.0645 66.9838C78.2005 66.9838 77.5 66.2833 77.5 65.4193C77.5 64.5553 78.2005 63.8547 79.0645 63.8547C79.9285 63.8547 80.629 64.5553 80.629 65.4193Z" fill="#265785"/>
<path d="M35.2581 37.2581H50.9032V40.3871H35.2581V37.2581Z" fill="#265785"/>
<path d="M35.2581 43.5161H50.9032V46.6451H35.2581V43.5161Z" fill="#265785"/>
<path d="M52.4677 58.6686V52.9032H57.1613V31H29V52.9032H41.9057L52.4677 58.6686ZM32.129 34.129H54.0323V49.7742H49.3387V53.396L42.7033 49.7742H32.129V34.129Z" fill="#265785"/>
<path d="M61.8548 88.8871H36.6163L38.3871 86.2324V60.7258C38.3871 58.1384 36.281 56.0322 33.6935 56.0322C31.1061 56.0322 29 58.1384 29 60.7258V86.2324L32.8563 92.0161H61.8548V88.8871ZM33.6935 59.1613C34.5568 59.1613 35.2581 59.8641 35.2581 60.7258V63.8548H32.129V60.7258C32.129 59.8641 32.8303 59.1613 33.6935 59.1613ZM33.6935 87.6304L32.129 85.2836V66.9838H35.2581V85.2836L33.6935 87.6304Z" fill="#265785"/>
<path d="M58.7258 82.629H61.8549V85.7581H58.7258V82.629Z" fill="#265785"/>
<path d="M41.5162 82.629H55.5969V85.7581H41.5162V82.629Z" fill="#265785"/>
<path d="M41.5162 76.371H55.5969V79.5H41.5162V76.371Z" fill="#265785"/>
<path d="M52.4678 70.1129H55.5968V73.2419H52.4678V70.1129Z" fill="#265785"/>
<path d="M41.5162 70.1129H49.3388V73.2419H41.5162V70.1129Z" fill="#265785"/>
</svg>
