<svg width="156" height="156" viewBox="0 0 156 156" fill="none" xmlns="http://www.w3.org/2000/svg">
<circle cx="78" cy="78" r="76" fill="white" stroke="#99D6FF" stroke-width="4"/>
<path d="M122.562 97.1871H121.125V36.7935C121.125 34.0938 119.19 31.8968 116.812 31.8968H85.1875V28.6323C85.1875 27.7313 84.5449 27 83.75 27H72.25C71.4551 27 70.8125 27.7313 70.8125 28.6323V31.8968H39.1875C36.8099 31.8968 34.875 34.0938 34.875 36.7935V97.1871H33.4375C32.6426 97.1871 32 97.9167 32 98.8194V103.716C32 104.619 32.6426 105.348 33.4375 105.348H60.1477L53.6473 126.019C53.6186 126.109 53.6257 126.197 53.6143 126.287C53.597 126.382 53.5625 126.468 53.5625 126.568C53.5625 126.584 53.5697 126.597 53.5711 126.612C53.574 126.736 53.6056 126.85 53.6329 126.966C53.6545 127.057 53.6617 127.15 53.6933 127.234C53.7292 127.325 53.7896 127.399 53.8414 127.48C53.896 127.572 53.9406 127.666 54.011 127.741C54.0642 127.8 54.1346 127.836 54.1979 127.883C54.2899 127.957 54.3776 128.034 54.4839 128.081C54.4969 128.086 54.5055 128.099 54.517 128.104C54.6751 128.169 54.8404 128.2 55 128.2H62.1875C62.3629 128.2 62.5296 128.154 62.6906 128.086C62.7424 128.063 62.7884 128.034 62.8372 128.004C62.9408 127.944 63.0356 127.872 63.1219 127.785C63.1664 127.741 63.2096 127.699 63.2469 127.652C63.326 127.552 63.3878 127.441 63.4439 127.32C63.4698 127.266 63.5014 127.217 63.5215 127.159C63.5272 127.142 63.5373 127.131 63.5431 127.116L65.7669 120.039H90.2331L92.4598 127.116C92.4656 127.132 92.4756 127.144 92.4814 127.159C92.5015 127.217 92.5331 127.265 92.559 127.32C92.6151 127.441 92.6769 127.554 92.7559 127.65C92.7933 127.699 92.8364 127.741 92.881 127.785C92.9687 127.872 93.0621 127.944 93.1656 128.004C93.2145 128.034 93.2591 128.063 93.3123 128.086C93.4704 128.154 93.6371 128.2 93.8125 128.2H101C101.16 128.2 101.325 128.169 101.483 128.104C101.496 128.099 101.505 128.086 101.515 128.081C101.622 128.034 101.71 127.957 101.802 127.885C101.865 127.836 101.936 127.8 101.989 127.741C102.059 127.666 102.104 127.57 102.159 127.48C102.209 127.397 102.269 127.323 102.307 127.234C102.338 127.15 102.345 127.057 102.367 126.966C102.394 126.848 102.426 126.734 102.429 126.612C102.43 126.597 102.438 126.584 102.438 126.568C102.438 126.468 102.403 126.382 102.387 126.287C102.374 126.197 102.381 126.109 102.354 126.019L95.8523 105.348H122.562C123.357 105.348 124 104.619 124 103.716V98.8194C124 97.9167 123.357 97.1871 122.562 97.1871ZM73.6875 30.2645H82.3125V31.8968H73.6875V30.2645ZM37.75 36.7935C37.75 35.8942 38.394 35.1613 39.1875 35.1613H72.25H83.75H116.812C117.606 35.1613 118.25 35.8942 118.25 36.7935V97.1871H37.75V36.7935ZM67.3352 105.348L61.1755 124.935H57.0398L63.1995 105.348H67.3352ZM85.613 105.348L87.6672 111.877H68.3328L70.387 105.348H85.613ZM66.7933 116.774L67.3064 115.142H88.6921L89.2053 116.774H66.7933ZM98.9602 124.935H94.8245L88.6648 105.348H92.8005L98.9602 124.935ZM121.125 102.084H34.875V100.452H121.125V102.084Z" fill="#265785"/>
<path d="M109.625 62.9227H101V58.0096C101 57.1086 100.357 56.3774 99.5625 56.3774H88.4449L79.4375 50.5355V48.2193H86.625C89.0026 48.2193 90.9375 46.0223 90.9375 43.3226C90.9375 40.6228 89.0026 38.4258 86.625 38.4258H69.375C66.9974 38.4258 65.0625 40.6228 65.0625 43.3226C65.0625 46.0223 66.9974 48.2193 69.375 48.2193H76.5625V50.5355L67.5551 56.3774H56.4447C55.6498 56.3774 55.0072 57.1086 55.0072 58.0096V62.9211H46.3808C45.5858 62.9211 44.9433 63.6523 44.9433 64.5533V72.7163C44.9433 73.6173 45.5858 74.3485 46.3808 74.3485H54.8807V79.2322C54.8807 80.1349 55.5233 80.8645 56.3182 80.8645H76.5625V84.1241H69.375C66.9974 84.1241 65.0625 86.3211 65.0625 89.0209C65.0625 91.7206 66.9974 93.9177 69.375 93.9177H86.625C89.0026 93.9177 90.9375 91.7206 90.9375 89.0209C90.9375 86.3211 89.0026 84.1241 86.625 84.1241H79.4375V80.8645H99.5625C100.357 80.8645 101 80.1349 101 79.2322V74.3502H109.625C110.42 74.3502 111.063 73.6189 111.063 72.7179V64.555C111.063 63.654 110.42 62.9227 109.625 62.9227ZM69.375 41.6903H86.625C87.4185 41.6903 88.0625 42.4232 88.0625 43.3226C88.0625 44.2219 87.4185 44.9548 86.625 44.9548H69.375C68.5815 44.9548 67.9375 44.2219 67.9375 43.3226C67.9375 42.4232 68.5815 41.6903 69.375 41.6903ZM86.625 90.6531H69.375C68.5815 90.6531 67.9375 89.9219 67.9375 89.0209C67.9375 88.1199 68.5815 87.3886 69.375 87.3886H86.625C87.4185 87.3886 88.0625 88.1199 88.0625 89.0209C88.0625 89.9219 87.4185 90.6531 86.625 90.6531ZM78 53.3626L85.1645 58.0096L78 62.6583L70.8355 58.0096L78 53.3626ZM47.8183 66.1856H56.4375C56.4404 66.1856 56.4418 66.1872 56.4447 66.1872C56.4476 66.1872 56.449 66.1856 56.4519 66.1856H65.0654V71.084H47.8183V66.1856ZM98.125 77.6H57.7557V74.3485H66.5029C67.2978 74.3485 67.9404 73.6173 67.9404 72.7163V64.5533C67.9404 63.6523 67.2978 62.9211 66.5029 62.9211H57.8822V59.6419H67.5551L77.287 65.9554C77.507 66.0991 77.7542 66.1709 78 66.1709C78.2458 66.1709 78.4931 66.0991 78.713 65.9554L88.4449 59.6419H98.125V62.9227H89.5029C88.708 62.9227 88.0654 63.654 88.0654 64.555V72.7179C88.0654 73.6189 88.708 74.3502 89.5029 74.3502H98.125V77.6ZM108.188 71.0856H99.6258C99.6028 71.084 99.5855 71.0709 99.5625 71.0709C99.5395 71.0709 99.5223 71.084 99.4993 71.0856H90.9404V66.1872H108.188V71.0856Z" fill="#265785"/>
<rect x="47" y="66" width="18" height="6" fill="#99D6FF"/>
<rect x="91" y="66" width="18" height="6" fill="#99D6FF"/>
<path d="M78 53.5L71 58L78 62.5L85 58L78 53.5Z" fill="#99D6FF" stroke="#99D6FF"/>
</svg>
