<svg width="156" height="156" viewBox="0 0 156 156" fill="none" xmlns="http://www.w3.org/2000/svg">
<circle cx="78" cy="78" r="76" fill="white" stroke="#99D6FF" stroke-width="4"/>
<path d="M74.5 108.5V96L85.5 102L74.5 108.5Z" fill="#99D6FF"/>
<path d="M62 68L54.5 83H65.5L74.5 68H62Z" fill="#99D6FF"/>
<path d="M83 83.5L91.5 68H103.5L95 83.5H83Z" fill="#99D6FF"/>
<path d="M61 61L46.5 45.5L59 41.5L74.5 57.5L61 61Z" fill="#99D6FF"/>
<path d="M90.5 53C85.1667 48.1667 74.3 38.3 73.5 37.5L85 32L102 48L90.5 53Z" fill="#99D6FF"/>
<path d="M74.5 108.5V96L85.5 102L74.5 108.5Z" stroke="#99D6FF"/>
<path d="M62 68L54.5 83H65.5L74.5 68H62Z" stroke="#99D6FF"/>
<path d="M83 83.5L91.5 68H103.5L95 83.5H83Z" stroke="#99D6FF"/>
<path d="M61 61L46.5 45.5L59 41.5L74.5 57.5L61 61Z" stroke="#99D6FF"/>
<path d="M90.5 53C85.1667 48.1667 74.3 38.3 73.5 37.5L85 32L102 48L90.5 53Z" stroke="#99D6FF"/>
<path fill-rule="evenodd" clip-rule="evenodd" d="M116.502 65.348H53.1987L114.002 47.7341C114.475 47.5972 114.873 47.2775 115.111 46.847C115.349 46.4157 115.405 45.9084 115.268 45.4358L112.087 34.4516C110.815 30.0644 106.73 27 102.153 27C101.188 27 100.227 27.137 99.2947 27.4066L42.2065 43.9442C39.5661 44.7089 37.3779 46.4643 36.0436 48.8858C34.7099 51.3074 34.3968 54.0956 35.1615 56.7353L38.2701 67.4666V111.674C38.2701 117.368 42.9023 122 48.5955 122H87.5C88.5249 122 88.6201 119.373 88.6201 119.373C88.6201 119.373 103.369 118.289 102.344 118.289C81.354 118.289 48.5962 118.289 48.5962 118.289C44.9484 118.289 41.9811 115.322 41.9811 111.674V86.4236H51.4867H51.4911H51.4947H66.0253H66.0297H66.034H80.5647H80.569H80.5734H95.104H95.1083H95.112H114.647V111.674C114.647 115.322 111.679 118.289 108.031 118.289C108.031 118.289 104.565 118.289 102.344 118.289C101.32 118.289 85.5 119.12 85.5 120.145C85.5 121.169 84.7112 122 85.7353 122H108.031C113.725 122 118.358 117.368 118.358 111.674V67.2035C118.358 66.1787 117.527 65.348 116.502 65.348ZM83.7842 82.7126L91.6678 69.059H101.921L94.0385 82.7126H83.7842ZM69.2449 82.7126L77.1284 69.059H87.3821L79.4992 82.7126H69.2449ZM54.7062 82.7126L62.5891 69.059H72.8434L64.9599 82.7126H54.7062ZM61.6048 58.6923L48.4034 46.0128L58.2947 43.1477C58.3643 43.2491 58.4454 43.3448 58.5382 43.4339L71.7396 56.1135L61.8483 58.9786C61.7788 58.8771 61.6969 58.7807 61.6048 58.6923ZM86.4681 35.3431L99.6695 48.0226L89.7782 50.8877C89.7086 50.7862 89.6275 50.6898 89.5347 50.6014L76.3333 37.9219L86.2246 35.0568C86.2941 35.1583 86.3753 35.2539 86.4681 35.3431ZM72.5028 39.3889L85.7042 52.0677L75.8129 54.9335C75.7433 54.832 75.6622 54.7356 75.5694 54.6472L62.368 41.9677L72.2593 39.1026C72.3296 39.2033 72.4107 39.2997 72.5028 39.3889ZM100.328 30.9711C100.923 30.7986 101.537 30.7109 102.153 30.7109C105.089 30.7109 107.707 32.6737 108.522 35.4844L111.188 44.6857L103.744 46.8419C103.673 46.7404 103.592 46.6448 103.499 46.5556L90.2986 33.8768L100.328 30.9711ZM39.2943 50.6761C40.1495 49.1228 41.5505 47.998 43.2393 47.5087L44.3294 47.1927C44.3997 47.2942 44.4809 47.3906 44.5729 47.479L57.7743 60.1585L41.3918 64.9045L38.726 55.7032C38.2368 54.0152 38.439 52.23 39.2943 50.6761ZM41.9811 69.059H58.3041L50.4213 82.7126H41.9811V69.059ZM98.3235 82.7126L106.206 69.059H114.647V82.7126H98.3235Z" fill="#265785"/>
<path d="M85.7353 122H87.5C88.5249 122 88.6201 119.373 88.6201 119.373C88.6201 119.373 103.369 118.289 102.344 118.289C101.32 118.289 85.5 119.12 85.5 120.145C85.5 121.169 84.7112 122 85.7353 122Z" fill="#265785"/>
<path fill-rule="evenodd" clip-rule="evenodd" d="M91.1437 102.167C91.1437 101.504 90.79 100.892 90.216 100.561L73.9147 91.1492C73.3406 90.8179 72.6332 90.8179 72.0592 91.1492C71.4852 91.4804 71.1315 92.0929 71.1315 92.756V111.579C71.1315 112.241 71.4852 112.854 72.0592 113.185C72.3462 113.351 72.6666 113.434 72.9869 113.434C73.3073 113.434 73.6277 113.351 73.9147 113.185L90.216 103.774C90.79 103.443 91.1437 102.831 91.1437 102.167ZM74.8424 108.365V95.9698L85.5773 102.167L74.8424 108.365Z" fill="#265785"/>
</svg>
